<svg xmlns="http://www.w3.org/2000/svg" viewBox="0 0 82.2 24.72" width="82.2" height="24.72"><path style="fill:#fff;" d="M15,23a3.08,3.08,0,0,1-2.82,1.68,2.84,2.84,0,0,1-2.94-2.58c-1.8,1.77-2.94,2.64-4.92,2.64C2,24.72,0,23.34,0,20.7c0-2,1.14-3.45,5.43-5a32,32,0,0,1,3.78-1.08v-1c0-3.24-.93-4.08-3.15-4.08a7.32,7.32,0,0,0-1.86.27l-.63,2.25c-.27,1-.81,1.53-1.65,1.53A1.31,1.31,0,0,1,.45,12.33c.57-2.52,3-4.05,6.36-4.05s5.1,1.56,5.1,5.64v7.14c0,1.56.45,2.1,1.2,2.1a1.69,1.69,0,0,0,1.32-.81ZM9.21,15.66c-1.17.33-2.31.72-3,1-2.88,1.11-3.39,2.4-3.39,3.6A2.38,2.38,0,0,0,5.46,22.8c1.17,0,1.92-.48,3.75-1.92Z"/><path style="fill:#fff;" d="M21.45,10.74a6.81,6.81,0,0,1,5.07-2.46c3.54,0,6.27,3,6.27,8.07S30,24.72,26.07,24.72a5.67,5.67,0,0,1-4.62-2.34l-.27,2.25-4.89-.33v-1l2.46-.36c0-1.68.06-4,.06-5.52V2.64l-2.67-.27v-1l5-1.38.42.24-.09,4.68Zm.06,10.5a5.7,5.7,0,0,0,4,1.8c2.34,0,4.44-1.86,4.44-6.45,0-4.41-1.8-6.66-4.32-6.66-1,0-2.28.24-4.08,1.89Z"/><path style="fill:#fff;" d="M35.73,16.56c0-5.43,3.69-8.28,7.53-8.28s7.56,2.82,7.56,8.28-3.72,8.16-7.56,8.16S35.73,22,35.73,16.56Zm12.06,0c0-4.56-1.68-7-4.53-7s-4.53,2.46-4.53,7,1.65,6.9,4.53,6.9S47.79,21.09,47.79,16.56Z"/><path style="fill:#fff;" d="M70.41,23.31v1l-4.56.27-.3-3a7.63,7.63,0,0,1-5.85,3.12c-2.67,0-4.32-1.56-4.29-5.94l.09-8.37-2.37-.48V9L58,8.49l.33.33-.15,4.65v5.16c0,2.94.93,4,2.73,4a6.5,6.5,0,0,0,4.59-2.16l.09-10L63.21,10V9L68,8.49l.3.33-.09,4.65V23Z"/><path style="fill:#fff;" d="M82.2,23a4.68,4.68,0,0,1-3.81,1.68c-2.34,0-3.72-1.2-3.72-3.84,0-.78,0-1.5,0-2.73v-8H71.91V9l2.94-.36.87-4.44h1.89l-.18,4.53h4.41v1.44H77.4V20.76c0,1.74.72,2.46,1.89,2.46a3.68,3.68,0,0,0,2.25-.93Z"/></svg>