<svg xmlns="http://www.w3.org/2000/svg" width="600" height="263" viewBox="0 0 600 283" enable-background="new 0 0 600 283"><style type="text/css">.st0{fill:#1255A2;} .st1{fill:#FFFFFF;}</style><g id="logo_x5F_mark"><path class="st0" d="M600 141.5c0 78.1-134.3 141.4-300 141.4s-300-63.3-300-141.4c0-78.1 134.3-141.4 300-141.4s300 63.3 300 141.4z"/><path class="st1" d="M403.8 181c-7-5.2 1.1-24.7 6.9-33.7 4.2-6.5 7.2-7.6 7.2-7.6 2.2 2.3 2.9 6.3 3 9.3.5 17.9-10.1 37.2-17.1 32zm21.3-60c6.8-12.1 19.4-28.3 25.5-29.1.6 0 2.2.4 2.4 1.5 1.5 6.8-4.1 13.8-5.1 14.7-10.6 13.3-23.1 19.9-24.7 19.2-1.4-1.1.8-4.4 1.9-6.3m-266 5.1c-1.2-1.8 16-17.5 18.5-20.5.6-.6 1.2-1.1 1.9-1.7l3.2-3.2c2-1.9 4.1-3.6 6-5.4 2.5-2.4 5-4.9 7.8-7 .6-.5 2.9-1.7 3.5-1.9.6-.2 1.3-.4 2-.6 2.3-.7 9.8-2.3 11.2-2.5 1.4-.2 7.7-1 9.5-1.2.5-.1 1.1-.1 1.7-.2 5.8-.3 9.9.2 10.9.2 1.2.2 2.3.4 3.5.5 4.5 1.1 9.8 2.4 10.7 8.4 1.3 9.5-7.2 18.2-8.5 19.6-.9.9-6.9 5.9-9.2 7.3-1.7 1-3.5 1.7-5.2 2.6-2.1 1-16.7 7.2-33.9 9-1.2 0-4.2.2-4.7.3-1.3 0-4 .6-16-.3-.9-.1-11.9-2-12.9-3.4m337.6 51c.1-.2-.4-.3-.6-.3-.6 0-20.7 24.8-31 9.5-5.6-8.4 3.8-26.6 18.1-38.8 13.1-11.2 3-21.4-12.1-7.3-5.6 6.2-16.5 17.6-24.5 17-11.2-1.5-20.8-19.3-21.3-21.8-.1-.1 17.8-11.7 25.8-18.7 10.1-8.9 22.2-31.3 11.2-38.3-.6-.4-3.4-2.7-10.5-.6-1.8.5-5.4 3.1-8.5 5.6-4.1 3.4-21 24.1-40.4 58.7-1.5 2.7-12.7 5.5-17.1 4.7-3.4-.6-12.7-1.4-13.4 10.2-.4 6.5 5.5 6.7 5.5 6.9.6 12.5-9.4 23.9-15.9 23.9-2.2 0-4.3-.8-4.5-1-12.9-8.7-3.2-34 10.8-42.1 7.8-4.5 8.5 1.1 13.7-1.7 2.1-1.1 2.4-4.1-.7-6.5-.8-.6-1.9-1-3-1.2-2.9-.5-4.9 0-5.7.2-1.9.4-3 .9-4.1 1.2-2.3.9-5.2 2.3-7.7 4.1-2.4 1.7-6 4.7-6 4.7-.1.1-8.4 8.5-8.4 8.5-15.2 16-31.7 31.4-35 35.5-1.1 1.1-23 24.4-25.7 27.2-1.1 1.1-5.7 5.1-6.6 2.6-.3-.8 0-1.8.4-2.6 1-1.9 22.7-30.2 28.9-38 10.8-15.3 32-38.2 26.7-43.6-.5-.5-2.6-2-5.9-.5-4.6 2-5.8 4.3-10.2 10.1-3.1 4-17.3 22.1-17.7 22.6-.3.4-5 6.6-5.5 7.1-3.4 4.4-5.5 5.6-8.3 6.5-8.3 2.5-14.7-.4-12.5-9 .8-8.6 29-29.2 31.4-34 .9-1.2 2.6-6.3-2.5-7.1-3.3-.6-7.5 1.2-9.7 3.1-.6.6-15 16.3-17.5 19.4-1 1.3-3.8 4.7-4.1 5.2-1.1 1.3-2.2 2.6-3.2 3.9-1.3 1.7-2.7 3.6-4.2 5.2-1.2 1.3-2.6 2.5-3.9 3.8-9.7 9.6-18.7 11.6-22.2 11.1-3.9-.6-7.1-2.2-10.3-3.8-6.1-3-18.3-10.9-30.2-18.9-15.8-10.7-31.2-21.6-31.2-21.7 7.2 1.4 14.6 1.2 15.3 1.3 4.3.2 23-.6 23.8-.7 4.1-.1 18.7-2 22.7-2.9.8-.2 7.3-1.8 9.8-2.6 1.7-.5 6.5-2.4 7.1-2.8 6.4-3.2 12.5-7.7 17.6-12.7 5.7-5.6 8.4-14.6 7.9-18.8.1-.6.4-11.9-9.6-18.2-.5-.4-.9-.7-1.3-1.1-2-1.1-7.4-6-24.9-8.7-2.1-.3-12.2-.9-15-.9h-6c-3.9.3-29.8.9-62.5 11.6-5.8 1.9-14.9 4.6-30.2 12.2-.7.4-4.2 2.6-5.3 3.4-.5.3-2.5 1.8-3.1 2.2-1 .8-4.6 4.2-5 4.7-9.1 12.3 1.5 18.1 12 19.4 2.1.3 6.7-.3 8.6-.8 4.6-1.3 6.6-1.9 8.7-4.4 1.5-1.8 1.1-3.6-.4-4.8-4.5-3.6 1.3-7.5 2.3-8.3 5.8-4.6 34.2-14.4 36.4-14.2 0 .1 0 .1-.1.3-.2 0-.4.3-.5.5-3.5 3.5-7.5 6.4-11.4 9.6l-8.7 7.6c-3.5 2.7-6.3 6-9.5 9-4.8 4.4-9.1 8.8-13.2 13.5-1.8 2-3.7 3.9-5.3 6-1.5 2.1-3 4.2-4.4 6.4l-1.2 1.5c-.8 1.2-1.7 2.5-2.4 3.7-.8 1.4-8.8 14.6-11.3 20.2-14.2 27.6-1.5 33.8 6.9 24.4 4.5-5.1 12.3-21.8 13.7-24.8 9.1-18.6 19.1-27.8 20.7-27.7 2.1.1 7.6 1.5 15.7 8.4 1 .8 13.3 11.4 14.3 12.4 1.7 1.3 18 17.3 18.4 17.8 8.9 7.3 14.3 17.3 30.9 18.2 3.6.1 5.4-.3 8.5-.9 8.5-1.6 21-12.2 28.5-20.2 0 .2-4.6 15.4 5 20.5 3.9 1.6 7.4-.7 7.2-.4-7.9 10.8-15.8 25.6-17.1 28.1-.4.8-17.4 32.2-7.5 35.9 11.4 1.5 24.2-15.6 35.3-33.4 8.6-13.9 24-33.1 27.3-37.1l13.3-14.3c2.8-2.8 9.5-9.3 11.6-11.6l-.6 1.5c-.6 1.7-.8 3.5-1.1 5.3-.2 1.2-.4 2.5-.5 3.7-.2 4.3.3 8.4 1.6 12.1 1.5 4.1 4.6 8.2 9.6 9.4 16.7 4.2 25.9-7.8 26.2-8-.1 0 3.5-4.4 4.6-7.3.4-.4 5.7-18.6 6.3-22.3.2-1.5 2.6-5 2.6-5 0-.1 1.2-1.1 2-1.8 0 0 3.3-2.7 8.3-4.2-.3.4-.6.7-1.3 2-10.5 19.2-11 39.2-7.8 42.4.5.4 3.7 5.8 13.2 5.1 2.6-.2 11.8-.8 18.5-18.1 5.7-14.8 5.4-27.1 5.5-27.2 4.4 4.7 10 8.4 15.6 8.9 5.8.5 12.7-2.4 19.9-8.4-3.3 5.7-6.2 11.5-6.2 11.5-12.7 25.7 1.2 32.6 8.3 33.7 21.2.2 30.5-18.4 31-20.8"/><path class="st1" d="M483.9 126.9l6.9-4.9 6.4 4.8-2.2-7.9 6.8-5-8.2.1-2.2-8-2.9 8-8.1.1 6.4 4.8zM174.9 38.1l.5-.1 6.8 6.1 2.3-.5-7.1-6.2c2.6-.8 3.8-3 3.3-5.5-.8-3.7-4-3.9-7.2-3.2l-2.4.5 3.6 16.5 1.9-.4-1.7-7.2zm-1.6-7.6l.6-.1c2.3-.5 4.4-.7 5 2 .6 2.6-1.5 3.4-3.7 3.9l-.6.1-1.3-5.9"/><path class="st1" d="M192.5 24.8l2.2-.4 5.7 6.7 3.1-8.2 2.2-.4-4 10.5 1.2 7.2-1.9.3-1.2-7.2zM229 19.1c-4.9.6-8.6 5-8 9.8.6 4.8 5.1 8.2 10 7.6 4.9-.6 8.6-4.9 8-9.7-.5-4.9-5.1-8.3-10-7.7zm.2 1.7c4-.5 7.5 2.3 7.9 6.1.4 3.8-2.4 7.3-6.3 7.8s-7.5-2.3-7.9-6.1c-.5-3.8 2.3-7.3 6.3-7.8M256 18.6l.8-.1c2.4-.1 4.1 0 4.2 2.6.2 2.6-1.7 3-3.9 3.1h-.7l-.4-5.6zm-.9 15.3l4-.3c3.5-.2 6.2-1.7 5.9-5.1-.1-2-1.5-3.8-3.6-4.1 1.1-.8 1.6-2 1.5-3.4-.2-3.5-2.9-4.4-6.1-4.2l-2.8.2 1.1 16.9m1.4-8l1.7-.1c2.1-.1 4.7.1 4.9 2.7.2 2.6-2.1 3.2-4.3 3.4l-1.9.1-.4-6.1"/><path class="st1" d="M282.7 32.6h-1.9l-.5-16.9 2-.1zM335.1 24.9c-.1 2.3-.4 4.2-2.1 5.9-1.7 1.7-4.1 2.7-6.6 2.5-4.9-.2-8.8-4.4-8.5-9.1.2-4.8 4.5-8.6 9.5-8.4 3 .1 5.5 1.6 7.2 4l-1.5 1.2c-1.4-2.1-3.3-3.3-5.9-3.5-4-.2-7.3 2.9-7.4 6.7-.1 1.8.6 3.5 1.8 4.9 1.2 1.3 3 2.3 4.8 2.4 3 .2 6.3-1.9 6.4-5l-5.2-.3.1-1.8 7.4.5zM352.6 27.4h.5l4.5 7.9 2.4.2-4.8-8.1c2.7 0 4.5-1.6 4.8-4.2.3-3.8-2.6-4.9-5.9-5.2l-2.5-.3-1.6 16.9 1.9.2.7-7.4zm.7-7.8l.6.1c2.3.2 4.4.7 4.1 3.4-.2 2.6-2.5 2.8-4.7 2.6h-.6l.6-6.1M385.5 21.4c-4.9-.7-9.6 2.6-10.3 7.4-.7 4.8 2.8 9.2 7.7 10 4.9.7 9.6-2.5 10.3-7.3.7-4.8-2.8-9.3-7.7-10.1zm-.3 1.8c4 .6 6.6 4.2 6 8-.6 3.8-4.2 6.4-8.1 5.9-3.9-.6-6.6-4.2-6-8 .6-3.8 4.2-6.5 8.1-5.9"/><path class="st1" d="M410.1 36.3c-.3 1.2-.6 2.6 0 3.8.5 1.2 1.9 2 3.1 2.3 1.2.2 2.7 0 3.7-.8 1.1-.9 1.4-2.3 1.6-3.6l2.1-9.9 1.9.4-2.2 10.4c-.4 1.8-.8 3.2-2.5 4.3-1.4 1-3.3 1.3-5 .9-1.6-.3-3.1-1.3-4-2.6-1.2-1.7-1.1-3.3-.7-5.1l2.2-10.4 1.9.4-2.1 9.9zM438.3 42.2l1.4.4c1.4.4 2.9.6 4.3 0 1.3-.6 2.2-1.8 2.5-3.1.4-1.5.1-3.1-.9-4.3-1-1.2-2.5-1.6-4-2l-2.8-.8-4.4 16.3 1.9.5 2-7zm2-7.5l.7.2c2.2.6 4.3 1.4 3.6 4.1-.6 2.3-2.6 2.5-4.6 1.9l-1.2-.3 1.5-5.9"/></g></svg>