<svg xmlns="http://www.w3.org/2000/svg" width="888" height="180" viewBox="0 0 888 130" enable-background="new 0 0 888 130"><style type="text/css">.st0{fill:#1255A2;} .st1{fill:#FFFFFF;}</style><g id="logo_x5F_yoko"><path class="st0" d="M55.5 83c3-3.9 4.7-9 4.7-15.3 0-4.1-.9-7.8-2.4-11.3-1.6-3.5-3.8-6.3-6.7-8.5-2.5-2-5.7-3.3-9.2-4.1-3.6-.8-9.9-1.2-18.9-1.2h-23v80.8h20.7v-31.6l18.6 31.5h24.9l-22-32.5c5.8-1.3 10.3-3.9 13.3-7.8m-20.4-4.7c-2.2 1.6-5.7 2.4-10.4 2.4h-4.1v-21.2h4.4c4.8 0 8.2.9 10.4 2.5 2.1 1.8 3 4.6 3 8.7.1 3.5-1 6-3.3 7.6"/><path class="st0" d="M109.1 42.4l-12 20.7c-.1.2-.2.5-.5.9-1.1 2.3-2 4.2-2.3 6.1-.5-2.1-1.3-4.1-2.4-6.3-.2-.3-.2-.5-.3-.7l-12-20.8h-24.1l28.2 44v36.9h21.2v-36.9l28.3-44h-24.1zM196.3 52.9c-4-3.9-8.7-7-14-9.1-5.3-2.2-10.9-3.2-16.6-3.2-5.8 0-11.4 1.1-16.6 3.2-5.2 2.2-9.9 5.2-13.9 9.1-4.2 4-7.3 8.6-9.5 13.7s-3.2 10.6-3.2 16.3c0 5.7 1.1 11.2 3.2 16.2 2.2 5.1 5.3 9.7 9.5 13.7 4 4 8.7 7 13.9 9.2 5.3 2.2 10.9 3.2 16.6 3.2 5.8 0 11.3-1.1 16.5-3.2 5.3-2.2 10-5.2 14.1-9.2 4.2-4 7.2-8.6 9.4-13.6 2.1-5.1 3.1-10.6 3.1-16.3 0-5.8-1.1-11.3-3.1-16.3-2.2-5.1-5.3-9.7-9.4-13.7m-15.5 47c-4 4.5-9 6.8-15.2 6.8-6.3 0-11.4-2.3-15.3-6.7-3.9-4.4-5.9-10.2-5.9-17 0-6.9 2-12.5 6-17 3.9-4.5 9-6.8 15.2-6.8 6 0 11.1 2.3 15.1 6.8s6.1 10.2 6.1 17c0 6.7-2.1 12.4-6 16.9M260.9 79.9c5.2-1.4 8.8-3.4 11.3-6.1 2.3-2.6 3.4-6.5 3.4-11.1 0-3.6-.8-6.9-2.3-9.6-1.5-2.8-3.8-5-6.8-6.7-2.6-1.5-5.8-2.4-9.4-3-3.6-.6-10-.9-19.2-.9h-22v80.8h22.7c9.3 0 15.9-.2 19.9-.9 4.1-.6 7.5-1.7 10.3-3.1 3.4-1.8 6-4.4 7.8-7.6 1.9-3.2 2.7-7.1 2.7-11.4 0-6-1.6-10.8-4.9-14.3-3.2-3.7-7.7-5.7-13.5-6.1m-24.7-21.4h4.8c5.5 0 9.1.6 11.1 1.9 1.9 1.3 2.8 3.4 2.8 6.5 0 2.9-1 5-3 6.3-2.1 1.2-5.8 1.9-11.3 1.9h-4.4v-16.6zm18.9 46.4c-2.2 1.3-5.9 1.9-11.2 1.9h-7.7v-17.4h8.1c5.4 0 9 .6 11 2 2.1 1.4 3 3.6 3 7 0 3-1 5.2-3.2 6.5"/><path class="st0" d="M285.5 42.6h22.3v80.8h-22.3zM848.2 62.5c-.8-5.4 3.5-7.3 6.1-7.5 6.2-.5 13.6 2.2 18.7 7.1l11.2-15.5c-3.3-2.6-18.7-13.1-37.5-9.1-7.5 1.8-15.5 7.8-17.7 17.9-7.8 34.2 44.2 32.1 39.9 47.5-3.2 12.1-32.3 9.8-40.4-11 .5-3.3.8-6.9.8-10.7v-4.8h-43.5v17h22c-.8 4.5-2.9 8.2-6.6 11-3.8 2.6-8.4 4-14.1 4-6.6 0-11.7-2.1-15.5-6.6-3.8-4.4-5.8-10.6-5.8-18.2s2-13.7 5.8-18c3.7-4.4 8.9-6.6 15.5-6.6 3.5 0 6.8.8 9.7 2.3 2.7 1.6 5.3 3.8 7.6 6.9l16.6-12.2c-3.2-4.3-7.1-7.4-12.7-10.7-6-3.3-13.2-4.6-21-4.6-6.2 0-11.8 1-17.1 2.9-5.2 2.1-9.8 5.1-13.9 9-3.4 3.4-6 7.1-8 11.2v-21.2h-21.1s.8 52.5 1.2 55.8c-1.5-3.5-38.1-55.8-38.1-55.8h-21v80.8h21s-.8-52.5-1.2-55.8c1.7 3.4 38.1 55.8 38.1 55.8h21.1v-21.4c2 4.3 4.6 8.1 7.8 11.4 4 4 8.6 7 13.6 9 5.2 2 11.1 3 17.6 3 13.3 0 23.5-3.9 30.8-11.5.4-.4.7-.8 1-1.2 17.2 21.9 62.6 23.7 68.2-5.1 6.4-32.5-37.4-34.2-39.1-45.1M635.7 65.9c-.3-.6-.6-1.3-.9-2-2.6-5.6-6.6-10.1-11.6-13.7-3.9-2.7-8.5-4.7-13.7-5.9-5.3-1.2-14.1-1.8-26.6-1.8h-16.9v61.8h-30.8v-61.7h-22.1v26.1c-.2-.7-.4-1.4-.7-2.1-2.1-5.2-5.3-9.7-9.3-13.7-4-3.9-8.8-7-14.1-9.1-5.4-2.2-10.9-3.2-16.6-3.2-5.8 0-11.4 1.1-16.6 3.2-5.3 2.2-9.9 5.2-13.9 9.1-4.2 4-7.3 8.6-9.5 13.7l-.8 2.2v-26.2h-22v31.3h-29.6v-31.3h-22v80.8h22v-33h29.5v32.9h22v-26.2l.8 2.2c2.1 5.1 5.3 9.7 9.5 13.7 4 4 8.6 7 13.9 9.2 5.3 2.2 10.9 3.2 16.6 3.2 5.7 0 11.3-1.1 16.5-3.2 5.3-2.2 10.1-5.2 14.2-9.2 4-4 7.1-8.6 9.3-13.6.3-.7.5-1.4.7-2.1v26h73.39999999999999c10.6 0 18.3-.5 23.4-1.8 4.9-1.1 9.4-3 13.3-5.7 5.1-3.6 9-8.2 11.6-13.8.3-.6.6-1.3.9-2v23.2h22.2v-80.6h-22.2v23.3zm-148.2 34c-4 4.5-9.1 6.8-15.2 6.8-6.2 0-11.4-2.3-15.3-6.7-3.9-4.4-5.9-10.2-5.9-17 0-6.9 2-12.5 6-17s9-6.8 15.2-6.8c6.1 0 11 2.3 15.1 6.8s6.1 10.2 6.1 17c0 6.7-2 12.4-6 16.9m123.3-.1c-3.9 3.5-10.2 5.3-18.9 5.3h-3.7v-44.6h3.7c8.7 0 15 1.9 18.9 5.4 4.1 3.6 6.1 9.3 6.1 17 0 7.7-1.9 13.4-6.1 16.9"/><path class="st0" d="M646.6.9l-4.5 13h-13l10.3 8.3-4 13.3 11.2-8.1 11 8.1-3.9-13.3 10.3-8.3h-12.9z"/></g></svg>